<svg id="visual" viewBox="0 0 900 600" width="900" height="600" xmlns="http://www.w3.org/2000/svg" xmlns:xlink="http://www.w3.org/1999/xlink" version="1.1"><rect x="0" y="0" width="900" height="600" fill="#191919"></rect><path d="M0 387L21.5 391.8C43 396.7 86 406.3 128.8 411.3C171.7 416.3 214.3 416.7 257.2 409.8C300 403 343 389 385.8 380.7C428.7 372.3 471.3 369.7 514.2 376.7C557 383.7 600 400.3 642.8 412.8C685.7 425.3 728.3 433.7 771.2 422.7C814 411.7 857 381.3 878.5 366.2L900 351L900 601L878.5 601C857 601 814 601 771.2 601C728.3 601 685.7 601 642.8 601C600 601 557 601 514.2 601C471.3 601 428.7 601 385.8 601C343 601 300 601 257.2 601C214.3 601 171.7 601 128.8 601C86 601 43 601 21.5 601L0 601Z" fill="#6600ff"></path><path d="M0 453L21.5 446.2C43 439.3 86 425.7 128.8 428C171.7 430.3 214.3 448.7 257.2 455.3C300 462 343 457 385.8 455.3C428.7 453.7 471.3 455.3 514.2 449.7C557 444 600 431 642.8 425.3C685.7 419.7 728.3 421.3 771.2 421.3C814 421.3 857 419.7 878.5 418.8L900 418L900 601L878.5 601C857 601 814 601 771.2 601C728.3 601 685.7 601 642.8 601C600 601 557 601 514.2 601C471.3 601 428.7 601 385.8 601C343 601 300 601 257.2 601C214.3 601 171.7 601 128.8 601C86 601 43 601 21.5 601L0 601Z" fill="#6822fc"></path><path d="M0 458L21.5 455.8C43 453.7 86 449.3 128.8 453.5C171.7 457.7 214.3 470.3 257.2 480.3C300 490.3 343 497.7 385.8 495.2C428.7 492.7 471.3 480.3 514.2 474.7C557 469 600 470 642.8 477C685.7 484 728.3 497 771.2 498.7C814 500.3 857 490.7 878.5 485.8L900 481L900 601L878.5 601C857 601 814 601 771.2 601C728.3 601 685.7 601 642.8 601C600 601 557 601 514.2 601C471.3 601 428.7 601 385.8 601C343 601 300 601 257.2 601C214.3 601 171.7 601 128.8 601C86 601 43 601 21.5 601L0 601Z" fill="#6b33f8"></path><path d="M0 536L21.5 530.7C43 525.3 86 514.7 128.8 513.8C171.7 513 214.3 522 257.2 522.2C300 522.3 343 513.7 385.8 510.7C428.7 507.7 471.3 510.3 514.2 510.3C557 510.3 600 507.7 642.8 505.3C685.7 503 728.3 501 771.2 506.2C814 511.3 857 523.7 878.5 529.8L900 536L900 601L878.5 601C857 601 814 601 771.2 601C728.3 601 685.7 601 642.8 601C600 601 557 601 514.2 601C471.3 601 428.7 601 385.8 601C343 601 300 601 257.2 601C214.3 601 171.7 601 128.8 601C86 601 43 601 21.5 601L0 601Z" fill="#6e40f4"></path><path d="M0 569L21.5 568.2C43 567.3 86 565.7 128.8 565.5C171.7 565.3 214.3 566.7 257.2 564.2C300 561.7 343 555.3 385.8 549.5C428.7 543.7 471.3 538.3 514.2 535C557 531.7 600 530.3 642.8 533C685.7 535.7 728.3 542.3 771.2 545.2C814 548 857 547 878.5 546.5L900 546L900 601L878.5 601C857 601 814 601 771.2 601C728.3 601 685.7 601 642.8 601C600 601 557 601 514.2 601C471.3 601 428.7 601 385.8 601C343 601 300 601 257.2 601C214.3 601 171.7 601 128.8 601C86 601 43 601 21.5 601L0 601Z" fill="#724bef"></path></svg>