<svg id="visual" viewBox="0 0 900 600" width="900" height="600" xmlns="http://www.w3.org/2000/svg" xmlns:xlink="http://www.w3.org/1999/xlink" version="1.1"><path d="M0 241L13.7 228C27.3 215 54.7 189 82 184C109.3 179 136.7 195 163.8 191C191 187 218 163 245.2 167C272.3 171 299.7 203 327 209C354.3 215 381.7 195 409 172C436.3 149 463.7 123 491 115C518.3 107 545.7 117 573 117C600.3 117 627.7 107 654.8 124C682 141 709 185 736.2 202C763.3 219 790.7 209 818 210C845.3 211 872.7 223 886.3 229L900 235L900 0L886.3 0C872.7 0 845.3 0 818 0C790.7 0 763.3 0 736.2 0C709 0 682 0 654.8 0C627.7 0 600.3 0 573 0C545.7 0 518.3 0 491 0C463.7 0 436.3 0 409 0C381.7 0 354.3 0 327 0C299.7 0 272.3 0 245.2 0C218 0 191 0 163.8 0C136.7 0 109.3 0 82 0C54.7 0 27.3 0 13.7 0L0 0Z" fill="#181818"></path><path d="M0 319L13.7 314C27.3 309 54.7 299 82 291C109.3 283 136.7 277 163.8 262C191 247 218 223 245.2 235C272.3 247 299.7 295 327 308C354.3 321 381.7 299 409 276C436.3 253 463.7 229 491 228C518.3 227 545.7 249 573 247C600.3 245 627.7 219 654.8 224C682 229 709 265 736.2 293C763.3 321 790.7 341 818 342C845.3 343 872.7 325 886.3 316L900 307L900 233L886.3 227C872.7 221 845.3 209 818 208C790.7 207 763.3 217 736.2 200C709 183 682 139 654.8 122C627.7 105 600.3 115 573 115C545.7 115 518.3 105 491 113C463.7 121 436.3 147 409 170C381.7 193 354.3 213 327 207C299.7 201 272.3 169 245.2 165C218 161 191 185 163.8 189C136.7 193 109.3 177 82 182C54.7 187 27.3 213 13.7 226L0 239Z" fill="#151515"></path><path d="M0 355L13.7 351C27.3 347 54.7 339 82 332C109.3 325 136.7 319 163.8 309C191 299 218 285 245.2 300C272.3 315 299.7 359 327 374C354.3 389 381.7 375 409 350C436.3 325 463.7 289 491 280C518.3 271 545.7 289 573 295C600.3 301 627.7 295 654.8 310C682 325 709 361 736.2 384C763.3 407 790.7 417 818 414C845.3 411 872.7 395 886.3 387L900 379L900 305L886.3 314C872.7 323 845.3 341 818 340C790.7 339 763.3 319 736.2 291C709 263 682 227 654.8 222C627.7 217 600.3 243 573 245C545.7 247 518.3 225 491 226C463.7 227 436.3 251 409 274C381.7 297 354.3 319 327 306C299.7 293 272.3 245 245.2 233C218 221 191 245 163.8 260C136.7 275 109.3 281 82 289C54.7 297 27.3 307 13.7 312L0 317Z" fill="#121212"></path><path d="M0 511L13.7 511C27.3 511 54.7 511 82 515C109.3 519 136.7 527 163.8 522C191 517 218 499 245.2 490C272.3 481 299.7 481 327 492C354.3 503 381.7 525 409 528C436.3 531 463.7 515 491 511C518.3 507 545.7 515 573 518C600.3 521 627.7 519 654.8 521C682 523 709 529 736.2 533C763.3 537 790.7 539 818 537C845.3 535 872.7 529 886.3 526L900 523L900 377L886.3 385C872.7 393 845.3 409 818 412C790.7 415 763.3 405 736.2 382C709 359 682 323 654.8 308C627.7 293 600.3 299 573 293C545.7 287 518.3 269 491 278C463.7 287 436.3 323 409 348C381.7 373 354.3 387 327 372C299.7 357 272.3 313 245.2 298C218 283 191 297 163.8 307C136.7 317 109.3 323 82 330C54.7 337 27.3 345 13.7 349L0 353Z" fill="#0e0e0e"></path><path d="M0 601L13.7 601C27.3 601 54.7 601 82 601C109.3 601 136.7 601 163.8 601C191 601 218 601 245.2 601C272.3 601 299.7 601 327 601C354.3 601 381.7 601 409 601C436.3 601 463.7 601 491 601C518.3 601 545.7 601 573 601C600.3 601 627.7 601 654.8 601C682 601 709 601 736.2 601C763.3 601 790.7 601 818 601C845.3 601 872.7 601 886.3 601L900 601L900 521L886.3 524C872.7 527 845.3 533 818 535C790.7 537 763.3 535 736.2 531C709 527 682 521 654.8 519C627.7 517 600.3 519 573 516C545.7 513 518.3 505 491 509C463.7 513 436.3 529 409 526C381.7 523 354.3 501 327 490C299.7 479 272.3 479 245.2 488C218 497 191 515 163.8 520C136.7 525 109.3 517 82 513C54.7 509 27.3 509 13.7 509L0 509Z" fill="#090909"></path></svg>